<svg width="26" height="22" viewBox="0 0 26 22" fill="currentColor" xmlns="http://www.w3.org/2000/svg">
<path d="M13.0946 22L12.6735 21.6316C3.09457 13.8421 0.515625 11.1053 0.515625 6.63158C0.515625 2.94736 3.51562 0 7.1472 0C10.1998 0 11.9367 1.73684 13.0946 3.05263C14.2525 1.73684 15.9893 0 19.0419 0C22.7262 0 25.6735 3 25.6735 6.63158C25.6735 11.1053 23.0946 13.8421 13.5156 21.6316L13.0946 22ZM7.1472 1.36842C4.25246 1.36842 1.88404 3.73684 1.88404 6.63158C1.88404 10.4737 4.3051 13 13.0946 20.2105C21.884 13 24.3051 10.4737 24.3051 6.63158C24.3051 3.73684 21.9367 1.36842 19.0419 1.36842C16.4104 1.36842 14.9893 2.94737 13.884 4.21053L13.0946 5.10526L12.3051 4.21053C11.1998 2.94737 9.77878 1.36842 7.1472 1.36842Z"/>
</svg>
