<svg width="25" height="22" viewBox="0 0 25 22" fill="none" xmlns="http://www.w3.org/2000/svg">
<path d="M24.5005 22C24.5005 20.8181 24.1901 19.6478 23.587 18.5558C22.984 17.4639 22.1001 16.4718 20.9858 15.636C19.8715 14.8003 18.5486 14.1374 17.0927 13.6851C15.6368 13.2328 14.0764 13 12.5005 13C10.9246 13 9.36419 13.2328 7.90829 13.6851C6.45238 14.1374 5.12951 14.8003 4.01521 15.636C2.9009 16.4718 2.01699 17.4639 1.41393 18.5558C0.810877 19.6478 0.500488 20.8181 0.500488 22H1.92482C1.92482 20.9584 2.19837 19.927 2.72984 18.9647C3.26132 18.0023 4.04032 17.1279 5.02236 16.3914C6.0044 15.6549 7.17026 15.0706 8.45335 14.672C9.73645 14.2734 11.1117 14.0682 12.5005 14.0682C13.8893 14.0682 15.2645 14.2734 16.5476 14.672C17.8307 15.0706 18.9966 15.6549 19.9786 16.3914C20.9607 17.1279 21.7397 18.0023 22.2711 18.9646C22.8026 19.927 23.0762 20.9584 23.0762 22H24.5005Z" fill="currentColor"/>
<path d="M18.6894 6.84444C18.6894 10.3484 15.8489 13.1889 12.3449 13.1889C8.84099 13.1889 6.00049 10.3484 6.00049 6.84444C6.00049 3.3405 8.84099 0.5 12.3449 0.5C15.8489 0.5 18.6894 3.3405 18.6894 6.84444Z" stroke="currentColor"/>
</svg>
