<svg width="23" height="23" viewBox="0 0 23 23" fill="currentColor" xmlns="http://www.w3.org/2000/svg">
<path d="M9.51911 18.9767C4.57043 18.9767 0.500488 14.953 0.500488 9.95807C0.500488 5.00939 4.52418 0.939453 9.51911 0.939453C14.514 0.939453 18.5377 4.96314 18.5377 9.95807C18.4915 14.953 14.4678 18.9767 9.51911 18.9767ZM9.51911 2.28068C5.26417 2.28068 1.79547 5.74938 1.79547 10.0043C1.79547 14.2593 5.26417 17.728 9.51911 17.728C13.774 17.728 17.2427 14.2593 17.2427 10.0043C17.1965 5.74938 13.7278 2.28068 9.51911 2.28068Z" />
<path d="M21.5445 23.0004L15.2546 16.7567L16.2721 15.7393L22.5158 22.0292L21.5445 23.0004Z"/>
</svg>
