<svg className='socIcon' width="35" height="35" viewBox="0 0 35 35" fill="none" xmlns="http://www.w3.org/2000/svg">
<path d="M21.5166 10.085H13.4834C13.0371 10.085 12.5951 10.1729 12.1828 10.3437C11.7704 10.5145 11.3958 10.7648 11.0802 11.0804C10.7646 11.396 10.5142 11.7707 10.3434 12.183C10.1726 12.5954 10.0847 13.0373 10.0847 13.4837V21.5168C10.0847 22.4182 10.4428 23.2827 11.0802 23.9201C11.3958 24.2357 11.7704 24.486 12.1828 24.6568C12.5951 24.8276 13.0371 24.9155 13.4834 24.9155H21.5166C22.418 24.9155 23.2824 24.5574 23.9198 23.92C24.5571 23.2827 24.9152 22.4182 24.9152 21.5168V13.4837C24.9152 13.0373 24.8273 12.5954 24.6565 12.183C24.4857 11.7707 24.2354 11.396 23.9198 11.0804C23.6042 10.7648 23.2295 10.5145 22.8172 10.3437C22.4049 10.1729 21.9629 10.085 21.5166 10.085ZM17.5 22.1754C16.5753 22.1754 15.6714 21.9012 14.9026 21.3875C14.1338 20.8738 13.5346 20.1436 13.1807 19.2894C12.8269 18.4351 12.7343 17.4951 12.9147 16.5882C13.0951 15.6813 13.5403 14.8482 14.1942 14.1944C14.848 13.5406 15.681 13.0953 16.5879 12.9149C17.4948 12.7345 18.4348 12.8271 19.2891 13.181C20.1434 13.5348 20.8735 14.134 21.3873 14.9029C21.901 15.6717 22.1752 16.5756 22.1752 17.5002C22.1752 18.1142 22.0542 18.7221 21.8193 19.2894C21.5843 19.8566 21.24 20.372 20.8058 20.8061C20.3717 21.2402 19.8563 21.5846 19.2891 21.8195C18.7219 22.0545 18.114 22.1754 17.5 22.1754ZM22.3701 13.7801C22.1501 13.7801 21.935 13.7149 21.7521 13.5927C21.5692 13.4705 21.4266 13.2968 21.3424 13.0935C21.2582 12.8903 21.2362 12.6667 21.2791 12.4509C21.322 12.2351 21.4279 12.0369 21.5835 11.8814C21.739 11.7258 21.9372 11.6199 22.153 11.577C22.3687 11.534 22.5924 11.5561 22.7956 11.6402C22.9989 11.7244 23.1726 11.867 23.2948 12.0499C23.417 12.2328 23.4823 12.4479 23.4823 12.6679C23.4823 12.9628 23.3651 13.2457 23.1565 13.4543C22.9479 13.6629 22.665 13.7801 22.3701 13.7801Z" fill="#848484"/>
<path d="M17.4999 14.4609C16.8988 14.4609 16.3113 14.6392 15.8115 14.9731C15.3118 15.307 14.9223 15.7816 14.6923 16.3369C14.4623 16.8922 14.4021 17.5032 14.5193 18.0927C14.6366 18.6822 14.926 19.2237 15.351 19.6487C15.776 20.0737 16.3175 20.3631 16.907 20.4804C17.4965 20.5976 18.1075 20.5375 18.6628 20.3074C19.2181 20.0774 19.6927 19.6879 20.0266 19.1882C20.3605 18.6884 20.5388 18.1009 20.5388 17.4999C20.5388 16.6939 20.2186 15.9209 19.6487 15.351C19.0788 14.7811 18.3058 14.4609 17.4999 14.4609V14.4609Z" fill="#848484"/>
<path d="M17.5 0C7.83501 0 0 7.83501 0 17.5C0 27.165 7.83501 35 17.5 35C27.165 35 35 27.165 35 17.5C35 7.83501 27.165 0 17.5 0ZM26.6146 21.3623C26.6145 22.7553 26.0611 24.0912 25.0761 25.0761C24.0912 26.0611 22.7553 26.6145 21.3623 26.6146H13.6377C12.2447 26.6145 10.9088 26.0611 9.92383 25.0762C8.93884 24.0912 8.38544 22.7553 8.38537 21.3623V13.6377C8.38543 12.2447 8.93881 10.9088 9.92381 9.92383C10.9088 8.93885 12.2447 8.38548 13.6377 8.38544H21.3623C22.7553 8.38549 24.0912 8.93887 25.0761 9.92385C26.0611 10.9088 26.6145 12.2447 26.6146 13.6377V21.3623Z" fill="#848484"/>
</svg>
