<svg width="156" height="47" viewBox="0 0 156 47" fill="none" xmlns="http://www.w3.org/2000/svg">
<path d="M16.1413 11.7413L14.9898 12.8294C14.1615 12.0166 13.2524 11.4021 12.2625 10.9856C11.2794 10.5625 10.3198 10.3509 9.38379 10.3509C8.21882 10.3509 7.10772 10.6363 6.0505 11.2073C5.00001 11.7782 4.18521 12.554 3.60609 13.5347C3.02698 14.5086 2.73742 15.5396 2.73742 16.6278C2.73742 17.7428 3.03708 18.804 3.63639 19.8115C4.23571 20.8124 5.06398 21.6016 6.12121 22.1792C7.17843 22.7502 8.33666 23.0356 9.5959 23.0356C11.1245 23.0356 12.4174 22.6058 13.4746 21.746C14.5319 20.8862 15.1581 19.7712 15.3534 18.401H10.6161V16.9703H17.02C17.0066 19.2608 16.3231 21.081 14.9696 22.4311C13.6228 23.7745 11.8181 24.4462 9.5555 24.4462C6.80807 24.4462 4.63301 23.5125 3.03034 21.6452C1.79804 20.2078 1.18188 18.5454 1.18188 16.658C1.18188 15.2542 1.53541 13.9477 2.24248 12.7387C2.94954 11.5297 3.91922 10.586 5.15152 9.90756C6.38383 9.22244 7.77775 8.87988 9.33328 8.87988C10.5925 8.87988 11.7777 9.10826 12.8888 9.565C13.9999 10.015 15.084 10.7404 16.1413 11.7413Z" fill="#C9814F"/>
<path d="M29.8251 8.87988C32.0742 8.87988 33.9564 9.62881 35.4715 11.1267C36.9866 12.6245 37.7442 14.4683 37.7442 16.658C37.7442 18.8275 36.9866 20.6679 35.4715 22.1792C33.9631 23.6905 32.1214 24.4462 29.9463 24.4462C27.7443 24.4462 25.8858 23.6939 24.3706 22.1893C22.8555 20.6847 22.0979 18.8645 22.0979 16.7285C22.0979 15.3045 22.4414 13.9847 23.1282 12.7689C23.8218 11.5532 24.7646 10.6028 25.9565 9.91764C27.1484 9.2258 28.4379 8.87988 29.8251 8.87988ZM29.8958 10.3307C28.7982 10.3307 27.7578 10.6162 26.7746 11.1871C25.7915 11.7581 25.0238 12.5271 24.4716 13.4944C23.9195 14.4616 23.6434 15.5396 23.6434 16.7285C23.6434 18.4883 24.2528 19.9761 25.4716 21.1919C26.6972 22.4009 28.1719 23.0054 29.8958 23.0054C31.0473 23.0054 32.1113 22.7267 33.0877 22.1692C34.0708 21.6117 34.8351 20.8493 35.3806 19.8821C35.9328 18.9148 36.2089 17.8402 36.2089 16.658C36.2089 15.4825 35.9328 14.4213 35.3806 13.4742C34.8351 12.5204 34.0641 11.7581 33.0675 11.1871C32.0709 10.6162 31.0136 10.3307 29.8958 10.3307Z" fill="#C9814F"/>
<path d="M50.7008 8.87988C52.9499 8.87988 54.832 9.62881 56.3471 11.1267C57.8623 12.6245 58.6198 14.4683 58.6198 16.658C58.6198 18.8275 57.8623 20.6679 56.3471 22.1792C54.8387 23.6905 52.997 24.4462 50.822 24.4462C48.62 24.4462 46.7614 23.6939 45.2463 22.1893C43.7312 20.6847 42.9736 18.8645 42.9736 16.7285C42.9736 15.3045 43.317 13.9847 44.0039 12.7689C44.6975 11.5532 45.6402 10.6028 46.8321 9.91764C48.024 9.2258 49.3136 8.87988 50.7008 8.87988ZM50.7715 10.3307C49.6738 10.3307 48.6334 10.6162 47.6503 11.1871C46.6671 11.7581 45.8995 12.5271 45.3473 13.4944C44.7951 14.4616 44.519 15.5396 44.519 16.7285C44.519 18.4883 45.1285 19.9761 46.3473 21.1919C47.5729 22.4009 49.0476 23.0054 50.7715 23.0054C51.923 23.0054 52.9869 22.7267 53.9633 22.1692C54.9465 21.6117 55.7108 20.8493 56.2562 19.8821C56.8084 18.9148 57.0845 17.8402 57.0845 16.658C57.0845 15.4825 56.8084 14.4213 56.2562 13.4742C55.7108 12.5204 54.9398 11.7581 53.9431 11.1871C52.9465 10.6162 51.8893 10.3307 50.7715 10.3307Z" fill="#C9814F"/>
<path d="M64.4957 24.0734V9.25267H67.5765C69.7987 9.25267 71.4114 9.43066 72.4148 9.78666C73.8558 10.2904 74.9804 11.1636 75.7885 12.4062C76.6033 13.6488 77.0107 15.1299 77.0107 16.8494C77.0107 18.3338 76.6874 19.6403 76.041 20.7687C75.4013 21.8971 74.5663 22.73 73.536 23.2674C72.5124 23.8047 71.0747 24.0734 69.2229 24.0734H64.4957ZM65.9199 22.6729H67.6371C69.6909 22.6729 71.1151 22.5453 71.9097 22.2901C73.0276 21.9274 73.9063 21.2758 74.5461 20.3355C75.1858 19.3884 75.5056 18.2331 75.5056 16.8696C75.5056 15.4389 75.1589 14.2164 74.4653 13.2022C73.7717 12.1879 72.8054 11.4927 71.5663 11.1166C70.637 10.8345 69.1051 10.6934 66.9704 10.6934H65.9199V22.6729Z" fill="#C9814F"/>
<path d="M91.419 9.25267H92.9139V22.6427H98.6209V24.0734H91.419V9.25267Z" fill="#C9814F"/>
<path d="M110.951 8.87988C113.2 8.87988 115.082 9.62881 116.598 11.1267C118.113 12.6245 118.87 14.4683 118.87 16.658C118.87 18.8275 118.113 20.6679 116.598 22.1792C115.089 23.6905 113.247 24.4462 111.072 24.4462C108.87 24.4462 107.012 23.6939 105.497 22.1893C103.982 20.6847 103.224 18.8645 103.224 16.7285C103.224 15.3045 103.567 13.9847 104.254 12.7689C104.948 11.5532 105.891 10.6028 107.083 9.91764C108.274 9.2258 109.564 8.87988 110.951 8.87988ZM111.022 10.3307C109.924 10.3307 108.884 10.6162 107.901 11.1871C106.918 11.7581 106.15 12.5271 105.598 13.4944C105.046 14.4616 104.769 15.5396 104.769 16.7285C104.769 18.4883 105.379 19.9761 106.598 21.1919C107.823 22.4009 109.298 23.0054 111.022 23.0054C112.173 23.0054 113.237 22.7267 114.214 22.1692C115.197 21.6117 115.961 20.8493 116.507 19.8821C117.059 18.9148 117.335 17.8402 117.335 16.658C117.335 15.4825 117.059 14.4213 116.507 13.4742C115.961 12.5204 115.19 11.7581 114.194 11.1871C113.197 10.6162 112.14 10.3307 111.022 10.3307Z" fill="#C9814F"/>
<path d="M131.827 8.87988C134.076 8.87988 135.958 9.62881 137.473 11.1267C138.988 12.6245 139.746 14.4683 139.746 16.658C139.746 18.8275 138.988 20.6679 137.473 22.1792C135.965 23.6905 134.123 24.4462 131.948 24.4462C129.746 24.4462 127.888 23.6939 126.372 22.1893C124.857 20.6847 124.1 18.8645 124.1 16.7285C124.1 15.3045 124.443 13.9847 125.13 12.7689C125.824 11.5532 126.766 10.6028 127.958 9.91764C129.15 9.2258 130.44 8.87988 131.827 8.87988ZM131.898 10.3307C130.8 10.3307 129.76 10.6162 128.776 11.1871C127.793 11.7581 127.026 12.5271 126.473 13.4944C125.921 14.4616 125.645 15.5396 125.645 16.7285C125.645 18.4883 126.255 19.9761 127.473 21.1919C128.699 22.4009 130.174 23.0054 131.898 23.0054C133.049 23.0054 134.113 22.7267 135.089 22.1692C136.073 21.6117 136.837 20.8493 137.382 19.8821C137.935 18.9148 138.211 17.8402 138.211 16.658C138.211 15.4825 137.935 14.4213 137.382 13.4742C136.837 12.5204 136.066 11.7581 135.069 11.1871C134.073 10.6162 133.015 10.3307 131.898 10.3307Z" fill="#C9814F"/>
<path d="M145.622 9.25267H147.137V14.8142L153.066 9.25267H155.076L147.935 15.9023L155.632 24.0734H153.662L147.137 17.1618V24.0734H145.622V9.25267Z" fill="#C9814F"/>
<line x1="-5.05617e-08" y1="31.5977" x2="154" y2="31.5976" stroke="#C9814F"/>
<path d="M27.2314 36.9737H28.5468C29.301 36.9737 29.8098 37.0065 30.0732 37.0722C30.4503 37.1647 30.7585 37.3558 30.9979 37.6454C31.2374 37.932 31.3571 38.2932 31.3571 38.729C31.3571 39.1678 31.2404 39.5306 31.0069 39.8171C30.7735 40.1007 30.4518 40.2918 30.0417 40.3903C29.7424 40.462 29.1828 40.4978 28.3627 40.4978H27.8914V43.5607H27.2314V36.9737ZM27.8914 37.614V39.853L29.0092 39.8664C29.4611 39.8664 29.7918 39.8261 30.0013 39.7455C30.2108 39.6619 30.3754 39.5291 30.4951 39.347C30.6149 39.1619 30.6747 38.9559 30.6747 38.729C30.6747 38.5081 30.6149 38.3066 30.4951 38.1245C30.3754 37.9394 30.2168 37.8081 30.0193 37.7304C29.8247 37.6528 29.5045 37.614 29.0586 37.614H27.8914Z" fill="#C9814F"/>
<path d="M36.0134 38.6887H36.6553V39.4007C36.8469 39.1201 37.0489 38.9111 37.2614 38.7738C37.4739 38.6335 37.6953 38.5633 37.9258 38.5633C38.0994 38.5633 38.2849 38.6186 38.4825 38.729L38.1547 39.2574C38.0231 39.2007 37.9123 39.1723 37.8225 39.1723C37.613 39.1723 37.411 39.2589 37.2165 39.432C37.0219 39.6022 36.8738 39.8679 36.772 40.2291C36.6942 40.5067 36.6553 41.068 36.6553 41.9128V43.5607H36.0134V38.6887Z" fill="#C9814F"/>
<path d="M45.0063 38.5633C45.7575 38.5633 46.38 38.835 46.8738 39.3783C47.3227 39.8739 47.5472 40.4605 47.5472 41.1381C47.5472 41.8188 47.3093 42.4143 46.8334 42.9248C46.3605 43.4323 45.7515 43.686 45.0063 43.686C44.2581 43.686 43.646 43.4323 43.1702 42.9248C42.6973 42.4143 42.4609 41.8188 42.4609 41.1381C42.4609 40.4635 42.6853 39.8783 43.1342 39.3828C43.6281 38.8365 44.2521 38.5633 45.0063 38.5633ZM45.0063 39.1768C44.4855 39.1768 44.0381 39.3694 43.664 39.7545C43.2899 40.1396 43.1028 40.6053 43.1028 41.1516C43.1028 41.5038 43.1881 41.8322 43.3587 42.1367C43.5293 42.4412 43.7597 42.677 44.0501 42.8442C44.3404 43.0084 44.6591 43.0905 45.0063 43.0905C45.3534 43.0905 45.6722 43.0084 45.9625 42.8442C46.2528 42.677 46.4832 42.4412 46.6538 42.1367C46.8244 41.8322 46.9097 41.5038 46.9097 41.1516C46.9097 40.6053 46.7212 40.1396 46.3441 39.7545C45.97 39.3694 45.524 39.1768 45.0063 39.1768Z" fill="#C9814F"/>
<path d="M54.4077 36.808V37.4215C54.1773 37.323 53.9797 37.2737 53.8151 37.2737C53.6924 37.2737 53.5907 37.2991 53.5098 37.3498C53.429 37.3976 53.3782 37.4543 53.3572 37.52C53.3363 37.5827 53.3258 37.7528 53.3258 38.0305V38.6887H54.3449V39.2261H53.3213V43.5607H52.6928V39.2261H52.0508V38.6887H52.6928V37.9275C52.6928 37.5782 52.7242 37.3289 52.7871 37.1797C52.8529 37.0304 52.9622 36.911 53.1148 36.8214C53.2704 36.7289 53.4575 36.6826 53.676 36.6826C53.8795 36.6826 54.1234 36.7244 54.4077 36.808Z" fill="#C9814F"/>
<path d="M60.9764 36.808V37.4215C60.746 37.323 60.5484 37.2737 60.3838 37.2737C60.2611 37.2737 60.1594 37.2991 60.0786 37.3498C59.9977 37.3976 59.9469 37.4543 59.9259 37.52C59.905 37.5827 59.8945 37.7528 59.8945 38.0305V38.6887H60.9136V39.2261H59.89V43.5607H59.2615V39.2261H58.6195V38.6887H59.2615V37.9275C59.2615 37.5782 59.2929 37.3289 59.3558 37.1797C59.4216 37.0304 59.5309 36.911 59.6835 36.8214C59.8391 36.7289 60.0262 36.6826 60.2447 36.6826C60.4482 36.6826 60.6921 36.7244 60.9764 36.808Z" fill="#C9814F"/>
<path d="M69.6461 41.9441L70.1758 42.2218C70.0022 42.5621 69.8017 42.8367 69.5743 43.0457C69.3468 43.2547 69.0909 43.4144 68.8066 43.5248C68.5223 43.6323 68.2005 43.686 67.8414 43.686C67.0453 43.686 66.4228 43.4263 65.9739 42.9069C65.5249 42.3845 65.3005 41.7949 65.3005 41.1381C65.3005 40.5202 65.4905 39.9694 65.8706 39.4858C66.3525 38.8708 66.9974 38.5633 67.8055 38.5633C68.6375 38.5633 69.3019 38.8783 69.7987 39.5082C70.1519 39.953 70.3315 40.5082 70.3374 41.1739H65.9469C65.9589 41.7411 66.14 42.2068 66.4901 42.5711C66.8403 42.9323 67.2728 43.1129 67.7875 43.1129C68.0359 43.1129 68.2769 43.0696 68.5103 42.983C68.7467 42.8964 68.9473 42.7815 69.1119 42.6382C69.2765 42.4949 69.4545 42.2636 69.6461 41.9441ZM69.6461 40.6321C69.5623 40.2978 69.4396 40.0306 69.278 39.8306C69.1194 39.6306 68.9084 39.4694 68.645 39.347C68.3816 39.2246 68.1048 39.1634 67.8145 39.1634C67.3356 39.1634 66.9241 39.3171 66.5799 39.6246C66.3285 39.8485 66.1385 40.1843 66.0098 40.6321H69.6461Z" fill="#C9814F"/>
<path d="M77.6469 39.2216L77.2428 39.638C76.9076 39.3126 76.5799 39.1499 76.2597 39.1499C76.0562 39.1499 75.8811 39.2171 75.7344 39.3514C75.5908 39.4858 75.519 39.6425 75.519 39.8216C75.519 39.9798 75.5788 40.1306 75.6985 40.2739C75.8182 40.4202 76.0696 40.5918 76.4527 40.7888C76.9196 41.0307 77.2369 41.2635 77.4045 41.4874C77.5691 41.7143 77.6514 41.9695 77.6514 42.2531C77.6514 42.6531 77.5107 42.992 77.2294 43.2696C76.948 43.5472 76.5964 43.686 76.1744 43.686C75.8931 43.686 75.6237 43.6248 75.3663 43.5025C75.1119 43.3801 74.9009 43.2114 74.7333 42.9965L75.1284 42.5487C75.4486 42.9099 75.7883 43.0905 76.1475 43.0905C76.3989 43.0905 76.6128 43.0099 76.7894 42.8487C76.966 42.6875 77.0543 42.4979 77.0543 42.28C77.0543 42.1009 76.9959 41.9412 76.8792 41.8009C76.7625 41.6635 76.4991 41.4904 76.0891 41.2814C75.6491 41.0545 75.3499 40.8306 75.1912 40.6097C75.0326 40.3888 74.9533 40.1366 74.9533 39.853C74.9533 39.4828 75.079 39.1753 75.3304 38.9305C75.5848 38.6857 75.905 38.5633 76.2911 38.5633C76.74 38.5633 77.192 38.7828 77.6469 39.2216Z" fill="#C9814F"/>
<path d="M84.8979 39.2216L84.4939 39.638C84.1587 39.3126 83.831 39.1499 83.5108 39.1499C83.3072 39.1499 83.1322 39.2171 82.9855 39.3514C82.8419 39.4858 82.77 39.6425 82.77 39.8216C82.77 39.9798 82.8299 40.1306 82.9496 40.2739C83.0693 40.4202 83.3207 40.5918 83.7038 40.7888C84.1707 41.0307 84.4879 41.2635 84.6555 41.4874C84.8201 41.7143 84.9024 41.9695 84.9024 42.2531C84.9024 42.6531 84.7618 42.992 84.4804 43.2696C84.1991 43.5472 83.8475 43.686 83.4255 43.686C83.1441 43.686 82.8748 43.6248 82.6174 43.5025C82.363 43.3801 82.152 43.2114 81.9844 42.9965L82.3795 42.5487C82.6997 42.9099 83.0394 43.0905 83.3985 43.0905C83.6499 43.0905 83.8639 43.0099 84.0405 42.8487C84.2171 42.6875 84.3054 42.4979 84.3054 42.28C84.3054 42.1009 84.247 41.9412 84.1303 41.8009C84.0136 41.6635 83.7502 41.4904 83.3402 41.2814C82.9002 41.0545 82.6009 40.8306 82.4423 40.6097C82.2837 40.3888 82.2044 40.1366 82.2044 39.853C82.2044 39.4828 82.3301 39.1753 82.5815 38.9305C82.8359 38.6857 83.1561 38.5633 83.5422 38.5633C83.9911 38.5633 84.443 38.7828 84.8979 39.2216Z" fill="#C9814F"/>
<path d="M89.9134 36.6826C90.057 36.6826 90.1797 36.7334 90.2815 36.8349C90.3832 36.9364 90.4341 37.0588 90.4341 37.2021C90.4341 37.3424 90.3832 37.4633 90.2815 37.5648C90.1797 37.6663 90.057 37.717 89.9134 37.717C89.7727 37.717 89.6515 37.6663 89.5497 37.5648C89.448 37.4633 89.3971 37.3424 89.3971 37.2021C89.3971 37.0588 89.448 36.9364 89.5497 36.8349C89.6515 36.7334 89.7727 36.6826 89.9134 36.6826ZM89.5991 38.6887H90.2321V43.5607H89.5991V38.6887Z" fill="#C9814F"/>
<path d="M97.5236 38.5633C98.2748 38.5633 98.8973 38.835 99.3911 39.3783C99.84 39.8739 100.064 40.4605 100.064 41.1381C100.064 41.8188 99.8266 42.4143 99.3507 42.9248C98.8778 43.4323 98.2688 43.686 97.5236 43.686C96.7754 43.686 96.1633 43.4323 95.6875 42.9248C95.2146 42.4143 94.9782 41.8188 94.9782 41.1381C94.9782 40.4635 95.2026 39.8783 95.6516 39.3828C96.1454 38.8365 96.7694 38.5633 97.5236 38.5633ZM97.5236 39.1768C97.0028 39.1768 96.5554 39.3694 96.1813 39.7545C95.8072 40.1396 95.6201 40.6053 95.6201 41.1516C95.6201 41.5038 95.7054 41.8322 95.876 42.1367C96.0466 42.4412 96.2771 42.677 96.5674 42.8442C96.8577 43.0084 97.1764 43.0905 97.5236 43.0905C97.8707 43.0905 98.1895 43.0084 98.4798 42.8442C98.7701 42.677 99.0005 42.4412 99.1711 42.1367C99.3417 41.8322 99.427 41.5038 99.427 41.1516C99.427 40.6053 99.2385 40.1396 98.8614 39.7545C98.4873 39.3694 98.0413 39.1768 97.5236 39.1768Z" fill="#C9814F"/>
<path d="M104.914 38.6887H105.542V39.5619C105.794 39.2276 106.072 38.9783 106.377 38.8141C106.683 38.6469 107.015 38.5633 107.374 38.5633C107.739 38.5633 108.062 38.6559 108.344 38.841C108.628 39.026 108.837 39.2753 108.972 39.5888C109.107 39.9022 109.174 40.3903 109.174 41.053V43.5607H108.55V41.2366C108.55 40.6754 108.526 40.3008 108.478 40.1127C108.403 39.7903 108.263 39.5485 108.056 39.3873C107.85 39.2231 107.58 39.141 107.248 39.141C106.868 39.141 106.527 39.2664 106.225 39.5171C105.925 39.7679 105.728 40.0784 105.632 40.4485C105.572 40.6903 105.542 41.1322 105.542 41.774V43.5607H104.914V38.6887Z" fill="#C9814F"/>
<path d="M119.069 38.6887V43.5607H118.45V42.7233C118.186 43.0427 117.89 43.283 117.561 43.4442C117.235 43.6054 116.877 43.686 116.488 43.686C115.797 43.686 115.206 43.4368 114.715 42.9382C114.227 42.4367 113.983 41.8277 113.983 41.1113C113.983 40.4097 114.23 39.8097 114.724 39.3111C115.218 38.8126 115.812 38.5633 116.506 38.5633C116.907 38.5633 117.269 38.6484 117.592 38.8186C117.919 38.9887 118.204 39.244 118.45 39.5843V38.6887H119.069ZM116.555 39.1678C116.205 39.1678 115.882 39.2544 115.586 39.4276C115.289 39.5977 115.053 39.838 114.876 40.1485C114.703 40.459 114.616 40.7874 114.616 41.1336C114.616 41.477 114.704 41.8053 114.881 42.1188C115.057 42.4322 115.294 42.677 115.59 42.8532C115.889 43.0263 116.21 43.1129 116.551 43.1129C116.895 43.1129 117.221 43.0263 117.53 42.8532C117.838 42.68 118.074 42.4457 118.239 42.1501C118.406 41.8546 118.49 41.5217 118.49 41.1516C118.49 40.5873 118.303 40.1157 117.929 39.7365C117.558 39.3574 117.1 39.1678 116.555 39.1678Z" fill="#C9814F"/>
<path d="M124.071 36.808H124.7V43.5607H124.071V36.808Z" fill="#C9814F"/>
</svg>
