<svg width="35" height="35" viewBox="0 0 35 35" fill="none" xmlns="http://www.w3.org/2000/svg">
<path d="M17.5 35C7.8365 35 0 27.1635 0 17.5C0 7.8365 7.8365 0 17.5 0C27.1635 0 35 7.8365 35 17.5C35 27.1635 27.1635 35 17.5 35Z" fill="#848484"/>
<path fill-rule="evenodd" clip-rule="evenodd" d="M26.751 12.5221C26.8919 12.0272 26.751 11.6665 26.074 11.6665H23.8409C23.2741 11.6665 23.0107 11.9794 22.8698 12.3241C22.8698 12.3241 21.7333 15.2101 20.125 17.0841C19.6043 17.6268 19.3684 17.7992 19.0835 17.7992C18.9426 17.7992 18.7374 17.6268 18.7374 17.132V12.5221C18.7374 11.9315 18.5719 11.6665 18.1002 11.6665H14.5896C14.2343 11.6665 14.0198 11.9411 14.0198 12.2028C14.0198 12.7647 14.8255 12.8924 14.9082 14.4727V17.9013C14.9082 18.6516 14.7765 18.7888 14.4946 18.7888C13.738 18.7888 11.8969 15.8901 10.8033 12.5732C10.5889 11.9283 10.3744 11.6697 9.80467 11.6697H7.5715C6.93432 11.6697 6.80566 11.9826 6.80566 12.3273C6.80566 12.9435 7.56231 16.0018 10.3316 20.0467C12.1788 22.8081 14.7765 24.3054 17.1444 24.3054C18.5627 24.3054 18.7404 23.9734 18.7404 23.3987V21.3109C18.7404 20.6469 18.8752 20.5128 19.3255 20.5128C19.6564 20.5128 20.2261 20.6852 21.5495 22.0164C23.0628 23.5935 23.314 24.3022 24.1656 24.3022H26.3988C27.0359 24.3022 27.3545 23.9702 27.1707 23.3125C26.9685 22.6581 26.2456 21.7099 25.2868 20.583C24.766 19.9413 23.9848 19.2518 23.749 18.907C23.4181 18.4632 23.5131 18.2653 23.749 17.8726C23.7459 17.8726 26.4661 13.8789 26.751 12.5221Z" fill="white"/>
</svg>
